<svg width="359" height="98" viewBox="0 0 359 98" fill="none" xmlns="http://www.w3.org/2000/svg">
<path d="M191.131 83.2946H207.439C207.883 83.2946 208.242 82.9355 208.242 82.4915V82.3781C208.242 81.9624 207.912 81.6033 207.496 81.575C202.318 81.1687 202.781 80.5451 202.781 76.0571V54.2693C202.781 46.0114 198.095 41.0889 190.253 41.0889C184.47 41.0889 179.652 44.5659 177.053 46.4366C176.515 46.824 175.863 46.9752 175.22 46.8712C174.559 46.7579 173.983 46.3894 173.595 45.8319C171.318 42.5534 168.219 41.0889 163.552 41.0889C159.725 41.0889 155.577 42.6384 151.212 45.7091C150.513 46.2004 149.653 46.3421 148.926 46.0776C148.038 45.7658 147.414 44.9816 147.301 44.0462L147.074 42.1282C147.045 41.9109 146.942 41.7125 146.762 41.5802C146.592 41.4574 146.394 41.4007 146.176 41.4196L145.779 41.5707C142.331 42.8935 138.561 43.451 134.876 43.177C134.498 43.2525 134.224 43.5832 134.224 43.9706V44.1218C134.224 44.5281 134.526 44.8682 134.923 44.9249L137.03 45.1989C139.695 45.5485 140.432 46.5217 140.432 49.7152V76.0383C140.432 80.4695 140.838 81.1404 135.708 81.5561C135.292 81.5939 134.961 81.9435 134.961 82.3592V82.482C134.961 82.9261 135.32 83.2851 135.764 83.2851H151.978C152.422 83.2851 152.781 82.9261 152.781 82.482V82.3592C152.781 81.9435 152.45 81.5939 152.034 81.5561C147.206 81.1404 147.584 80.4317 147.584 76.1327V56.9432C147.584 54.7606 147.688 53.4851 148.312 52.1529C150.277 47.6838 154.434 44.9154 159.158 44.9154C167.945 44.9154 167.945 52.4458 167.945 56.4802V76.1327C167.945 80.5357 168.437 81.1498 163.504 81.5561C163.089 81.5939 162.758 81.9435 162.758 82.3592V82.482C162.758 82.9261 163.117 83.2851 163.561 83.2851H179.595C180.039 83.2851 180.398 82.9261 180.398 82.482V82.3592C180.398 81.9435 180.067 81.5939 179.652 81.5561C174.72 81.1498 175.211 80.5357 175.211 76.1327V57.0377C175.211 56.7731 175.211 56.518 175.211 56.2629C175.202 54.9968 175.183 53.8158 175.523 52.4836C176.477 48.1279 180.842 45.0099 186.124 44.9154H186.351C188.911 44.9154 190.99 45.6902 192.558 47.2208C194.561 49.1955 195.582 52.304 195.582 56.4802V76.1327C195.582 80.4884 196.007 81.1404 191.046 81.5561C190.631 81.5939 190.3 81.9435 190.3 82.3592V82.482C190.3 82.9261 190.659 83.2946 191.113 83.2946H191.131Z" fill="#A04A4A"/>
<path d="M239.384 83.2949H255.975C256.419 83.2949 256.778 82.9359 256.778 82.4918V82.369C256.778 81.9533 256.448 81.6037 256.032 81.5659C250.665 81.1124 251.308 80.2148 251.308 75.8591V8.87041C251.308 8.66255 251.194 8.48303 251.005 8.398C250.93 8.3602 250.854 8.34131 250.779 8.34131C250.656 8.34131 250.542 8.37911 250.438 8.46414C247.009 11.242 242.681 13.708 238.874 15.0496L238.496 15.163C238.071 15.2386 237.787 15.6071 237.825 16.0417C237.863 16.4291 238.212 16.7409 238.637 16.7787L240.584 16.9299C243.381 17.2794 244.023 18.1581 244.023 21.6351V75.8685C244.023 80.2242 244.665 81.1124 239.299 81.5753C238.883 81.6131 238.552 81.9627 238.552 82.3784V82.5013C238.552 82.9454 238.911 83.3044 239.356 83.3044L239.384 83.2949Z" fill="#A04A4A"/>
<path d="M292.71 83.2947H309.113C309.557 83.2947 309.916 82.9357 309.916 82.4916V82.3688C309.916 81.9531 309.585 81.594 309.169 81.5657C304.039 81.1405 304.445 80.4697 304.445 76.0479V54.0805C304.445 45.9455 299.9 41.0796 292.285 41.0796C286.796 41.0796 283.007 43.5267 279.001 46.125C278.141 46.6919 277.036 46.6447 276.204 46.0211C275.722 45.662 275.392 45.1046 275.269 44.4432L274.825 42.0622C274.749 41.6465 274.343 41.3536 273.927 41.4103C270.686 42.7519 267.124 43.3566 263.609 43.1677H263.439C263.061 43.2338 262.797 43.5645 262.797 43.9519V44.1408C262.797 44.5377 263.09 44.8873 263.487 44.944L265.253 45.2085C267.597 45.5297 268.636 46.2573 268.636 49.7248V76.1424C268.636 80.4886 269.042 81.15 263.921 81.5657C263.506 81.6035 263.175 81.9531 263.175 82.3688V82.4822C263.175 82.9262 263.534 83.2853 263.978 83.2853H280.38C280.824 83.2853 281.183 82.9262 281.183 82.4822V82.3594C281.183 81.9436 280.853 81.594 280.437 81.5562C275.439 81.1311 275.807 80.4224 275.807 76.1329V56.8489C275.807 54.4773 275.94 53.2396 276.733 51.7373C278.472 48.4398 282.223 44.9062 287.561 44.9062C294.005 44.9062 297.274 48.7989 297.274 56.4709V76.1235C297.274 80.413 297.633 81.1216 292.654 81.5468C292.228 81.5846 291.907 81.9342 291.907 82.3499V82.4727C291.907 82.9168 292.266 83.2758 292.71 83.2758V83.2947Z" fill="#A04A4A"/>
<path d="M215.442 83.2961H232.033C232.477 83.2961 232.836 82.937 232.836 82.493V82.3701C232.836 81.9544 232.506 81.6048 232.09 81.567C226.723 81.1135 227.366 80.2348 227.366 75.9547V41.3738L227.224 41.251C223.369 42.7344 219.325 43.3958 215.196 43.2068L214.639 43.1784C214.261 43.254 213.987 43.5847 213.987 43.9721V44.1138C213.987 44.5201 214.289 44.8602 214.696 44.9169L216.982 45.2004C219.505 45.5594 220.204 46.5704 220.204 49.9057V75.9547C220.204 80.2442 220.809 81.1985 215.404 81.5859C214.979 81.6143 214.648 81.9733 214.648 82.389V82.4835C214.648 82.9276 215.007 83.2866 215.452 83.2866L215.442 83.2961Z" fill="#A04A4A"/>
<path d="M334.453 82.3701C334.453 81.9544 334.123 81.6048 333.707 81.567C328.34 81.1135 328.983 80.2348 328.983 75.9547V41.3738L328.841 41.251C324.986 42.7344 320.942 43.3958 316.813 43.2068L316.256 43.1784C315.878 43.254 315.604 43.5847 315.604 43.9721V44.1138C315.604 44.5201 315.906 44.8602 316.313 44.9169L318.599 45.2004C321.122 45.5594 321.821 46.5704 321.821 49.9057V75.9547C321.821 80.2442 322.426 81.1985 317.021 81.5859C316.596 81.6143 316.265 81.9733 316.265 82.389V82.4835C316.265 82.9276 316.624 83.2866 317.068 83.2866H333.66C334.104 83.2866 334.463 82.9276 334.463 82.4835V82.3607L334.453 82.3701Z" fill="#A04A4A"/>
<path d="M341.605 83.2961H358.196C358.641 83.2961 359 82.937 359 82.493V82.3701C359 81.9544 358.669 81.6048 358.253 81.567C352.887 81.1135 353.529 80.2348 353.529 75.9547V41.3738L353.387 41.251C349.532 42.7344 345.488 43.3958 341.36 43.2068L340.802 43.1784C340.424 43.254 340.15 43.5847 340.15 43.9721V44.1138C340.15 44.5201 340.452 44.8602 340.859 44.9169L343.145 45.2004C345.668 45.5594 346.367 46.5704 346.367 49.9057V75.9547C346.367 80.2442 346.972 81.1985 341.567 81.5859C341.142 81.6143 340.812 81.9733 340.812 82.389V82.4835C340.812 82.9276 341.171 83.2866 341.615 83.2866L341.605 83.2961Z" fill="#A04A4A"/>
<path d="M218.324 30.7997C217.776 29.9966 217.748 28.9479 218.23 28.0975C218.617 27.4267 219.193 26.9826 220.044 26.8503C221.206 26.6614 222.056 27.181 222.623 28.192C223.19 27.2283 223.936 26.7558 224.909 26.822C225.646 26.8692 226.213 27.1432 226.639 27.5873C227.281 28.277 227.498 29.2786 227.205 30.1667C227.101 30.469 226.941 30.7997 226.686 31.1021C225.24 32.85 224.267 34.0027 222.812 35.7412C222.755 35.8073 222.699 35.864 222.632 35.9396C222.585 35.9018 222.547 35.8735 222.51 35.8357C220.478 33.3886 220.525 33.4642 218.494 31.017C218.494 31.017 218.418 30.932 218.315 30.7903L218.324 30.7997Z" fill="#A04A4A"/>
<path d="M320.007 30.7997C319.459 29.9966 319.43 28.9479 319.912 28.0975C320.299 27.4267 320.876 26.9826 321.726 26.8503C322.888 26.6614 323.739 27.181 324.306 28.192C324.872 27.2283 325.619 26.7558 326.592 26.822C327.329 26.8692 327.896 27.1432 328.321 27.5873C328.964 28.277 329.181 29.2786 328.888 30.1667C328.784 30.469 328.623 30.7997 328.368 31.1021C326.923 32.85 325.95 34.0027 324.495 35.7412C324.438 35.8073 324.381 35.864 324.315 35.9396C324.268 35.9018 324.23 35.8735 324.192 35.8357C322.161 33.3886 322.208 33.4642 320.177 31.017C320.177 31.017 320.101 30.932 319.997 30.7903L320.007 30.7997Z" fill="#A04A4A"/>
<path d="M344.516 30.7997C343.968 29.9966 343.939 28.9479 344.421 28.0975C344.809 27.4267 345.385 26.9826 346.235 26.8503C347.397 26.6614 348.248 27.181 348.815 28.192C349.382 27.2283 350.128 26.7558 351.101 26.822C351.838 26.8692 352.405 27.1432 352.83 27.5873C353.473 28.277 353.69 29.2786 353.397 30.1667C353.293 30.469 353.132 30.7997 352.877 31.1021C351.432 32.85 350.459 34.0027 349.004 35.7412C348.947 35.8073 348.89 35.864 348.824 35.9396C348.777 35.9018 348.739 35.8735 348.701 35.8357C346.67 33.3886 346.717 33.4642 344.686 31.017C344.686 31.017 344.61 30.932 344.506 30.7903L344.516 30.7997Z" fill="#A04A4A"/>
<path d="M113.514 76.9449C113.098 87.1397 105.974 96.4463 95.5713 97.8257C88.9291 98.7044 82.4475 96.2289 76.5612 93.4039C70.656 90.5599 65.2894 87.0168 60.3006 82.7556C60.1589 82.6328 60.0455 82.4722 59.9983 82.1698C62.0391 83.0296 64.0705 83.8894 66.1114 84.7303C78.4603 89.8702 95.8358 97.9958 107.042 86.2043C112.729 80.2235 114.184 70.6051 110.528 63.207C112.654 67.506 113.712 72.2869 113.514 76.9355V76.9449Z" fill="#A04A4A"/>
<path d="M34.2414 94.3494C36.6507 93.3952 38.9561 92.2519 41.0442 91.1276C51.6264 85.4113 60.6684 77.0307 69.7766 69.2925C72.4599 67.006 75.2472 64.6439 77.9967 62.3479C81.6248 59.3056 85.7348 55.8664 90.648 53.6933C90.8936 53.5893 91.1393 53.4948 91.3755 53.4004C91.47 53.3626 91.5645 53.3248 91.6589 53.287H91.6778C89.4008 53.0035 87.1804 53.1925 84.6577 53.8444C73.1497 56.8112 62.8793 64.9746 53.894 72.4199C48.7352 76.7 43.737 81.169 38.6065 85.4775C33.4761 89.7859 28.5157 93.9809 22.4121 96.6076C22.6105 96.6076 22.8089 96.6265 22.9979 96.6359C26.6828 96.8154 30.5755 95.8139 34.2414 94.3683V94.3494Z" fill="#A04A4A"/>
<path d="M3.88457 85.4304C2.89249 83.04 1.54138 81.1314 1.06896 78.4953C0.643787 76.1238 0.549304 73.6767 0.766616 71.2674C1.20124 66.4109 2.96808 61.63 6.12382 57.8696C18.3689 43.3192 38.8623 54.232 50.8428 63.2552C50.9845 63.3591 51.1262 63.4725 51.2774 63.5859C52.4017 64.4457 53.46 65.381 54.4048 66.5148C52.7324 65.8062 51.0695 65.0976 49.3877 64.3984C44.4746 62.3576 39.5331 60.2222 34.4121 58.8144C29.3006 57.4066 24.5103 55.8477 19.1058 56.5279C5.78368 58.2097 -1.38761 72.2405 3.45939 84.3816C3.60111 84.7312 3.75229 85.0903 3.89401 85.4398L3.88457 85.4304Z" fill="#A04A4A"/>
<path d="M77.2979 0.792398C71.4115 -0.964992 64.7977 0.272728 60.3286 5.09138C59.3271 6.16849 58.4862 7.38733 57.787 8.67231C57.6642 8.89907 57.5414 9.11637 57.3619 9.44706C57.1729 9.16361 57.0217 8.97465 56.9084 8.75734C52.6188 0.849082 42.9059 -2.17438 34.8371 1.64274C27.5524 5.09138 22.592 13.4532 24.6234 21.5126C25.4549 24.8195 27.2689 27.569 29.3854 30.1295C36.9062 39.2093 45.353 48.2703 52.9023 57.3312C49.1702 51.8323 45.4664 46.305 41.6115 40.9006C38.1062 35.9874 39.9297 28.9768 43.2555 26.4446C47.2238 23.4212 52.9117 24.1109 56.1997 28.0319C56.5588 28.4571 56.88 28.9106 57.2957 29.4681C57.6075 29.0713 57.891 28.7122 58.1839 28.3626C60.6782 25.3675 63.834 23.9881 67.6889 24.7817C71.1659 25.4998 73.5091 27.6634 74.5956 31.0743C75.635 34.3151 74.8318 37.9149 73.1028 40.7494C69.6164 46.5034 65.4402 51.9362 61.6325 57.4824C66.8008 51.3032 72.8666 45.124 77.997 38.9164C81.2 35.0426 84.5353 31.2538 87.3887 27.1343C92.2168 20.1615 90.6673 10.7698 84.6487 5.03469C82.5322 3.0222 79.9906 1.58605 77.2884 0.773498L77.2979 0.792398ZM83.4109 24.0353C81.7386 26.6619 79.7639 29.0901 77.8648 31.6979C76.2302 26.4163 72.9044 23.1188 67.3015 22.7598C63.0592 22.4858 59.8184 24.5266 57.3524 28.7311C54.8486 24.3376 51.1638 22.0984 46.0995 22.9015C41.1485 23.6952 38.2479 26.9076 36.7739 31.7451C36.0748 30.7342 35.4512 29.8271 34.8087 28.9295C33.4481 27.021 31.8703 25.2352 30.7459 23.1944C26.3241 15.1728 31.0955 4.94021 40.1376 2.83323C46.3829 1.38763 52.6755 3.81586 56.3981 9.11638C56.6721 9.50376 56.9367 9.89114 57.3052 10.4108C57.6642 9.91003 57.9382 9.5321 58.2028 9.15417C64.467 0.187697 77.3829 0.112112 83.222 9.09748C86.3871 13.9539 86.5667 19.056 83.392 24.0164L83.4109 24.0353Z" fill="#A04A4A"/>
</svg>
