<svg width="22" height="22" viewBox="0 0 22 22" fill="none" xmlns="http://www.w3.org/2000/svg">
<path d="M20.7552 11.3154H20.0563V9.5643C20.0563 9.47272 20.0066 9.39599 19.9355 9.34897C20.1281 8.9959 20.3107 8.38023 19.971 7.55371C19.6703 6.82237 19.0778 6.45137 18.6017 6.15311C18.2692 5.94491 17.982 5.76506 17.8927 5.53132C17.8538 5.42959 17.7562 5.36237 17.6473 5.36237C17.5384 5.36237 17.4406 5.42959 17.4019 5.53145C17.3126 5.76506 17.0255 5.94491 16.693 6.15324C16.2169 6.45137 15.6244 6.82237 15.3237 7.55371C14.984 8.38023 15.1667 8.9959 15.3592 9.34897C15.2881 9.39599 15.2384 9.47272 15.2384 9.5643V11.3154H14.4936V8.12876C14.7967 7.78451 15.8145 6.4044 14.9186 4.22527C14.3486 2.83891 13.2499 2.15067 12.2803 1.54351C11.5744 1.10131 10.9646 0.719542 10.7544 0.168949C10.7155 0.0672205 10.6179 0 10.509 0C10.4001 0 10.3024 0.0672205 10.2636 0.168949C10.0533 0.719542 9.44358 1.10131 8.73764 1.54351C7.76807 2.15067 6.66933 2.83891 6.09936 4.22527C5.2058 6.39842 6.21753 7.77747 6.52437 8.12654V11.3154H5.68347V9.5643C5.68347 9.47272 5.63373 9.39599 5.56267 9.34897C5.75519 8.9959 5.93782 8.38023 5.59803 7.55371C5.29734 6.82237 4.70479 6.45137 4.22873 6.15311C3.89622 5.94491 3.60913 5.76506 3.51984 5.53132C3.48097 5.42959 3.38335 5.36237 3.27443 5.36237C3.16552 5.36237 3.0679 5.42959 3.02903 5.53132C2.93974 5.76506 2.65264 5.94491 2.32013 6.15311C1.84395 6.45137 1.2514 6.82237 0.950837 7.55371C0.611046 8.38023 0.793673 8.9959 0.986195 9.34897C0.915142 9.39599 0.8654 9.47272 0.8654 9.5643V11.3154H0.262724C0.117636 11.3154 0 11.433 0 11.5781V20.757C0 20.9021 0.117636 21.0197 0.262724 21.0197H20.7552C20.9003 21.0197 21.018 20.9021 21.018 20.757V11.5781C21.018 11.433 20.9003 11.3154 20.7552 11.3154ZM15.8096 7.75358C16.0462 7.17823 16.5167 6.88356 16.9719 6.59851C17.2228 6.44137 17.465 6.28961 17.6473 6.09795C17.8296 6.28961 18.0718 6.44124 18.3228 6.59851C18.7779 6.88356 19.2485 7.17823 19.4851 7.75358C19.8622 8.67108 19.4113 9.21691 19.3334 9.30157H15.9612C15.8832 9.21662 15.4326 8.67069 15.8096 7.75358ZM15.7639 9.82702H19.5309V11.3154H15.7639V9.82702ZM12.1478 20.4943H8.87029V16.2506C8.87029 15.4707 9.21434 14.7648 9.76827 14.4081C10.0617 14.2193 10.3055 14.0183 10.509 13.7974C10.7124 14.0183 10.9563 14.2193 11.2497 14.4081C11.8036 14.7648 12.1478 15.4708 12.1478 16.2506V20.4943ZM11.5342 13.9663C11.2272 13.7688 10.9854 13.5592 10.7949 13.3254L10.7126 13.2245C10.6128 13.1024 10.4052 13.1024 10.3054 13.2245L10.223 13.3256C10.0325 13.5592 9.79072 13.7688 9.48374 13.9663C8.78126 14.4187 8.34484 15.2939 8.34484 16.2506V20.4943H7.04982V8.28582H13.9681V20.4943H12.6732V16.2506C12.6732 15.2941 12.2368 14.4188 11.5342 13.9663ZM6.5853 4.42514C7.09112 3.19477 8.11405 2.55412 9.01653 1.98891C9.60086 1.62291 10.16 1.2727 10.509 0.800232C10.8579 1.2727 11.4171 1.62291 12.0014 1.98891C12.9039 2.55412 13.9268 3.19477 14.4327 4.42514C15.2013 6.29474 14.3734 7.46212 14.1181 7.76038H6.90178C6.64624 7.46237 5.8165 6.29487 6.5853 4.42514ZM1.43677 7.75358C1.67333 7.17823 2.14387 6.88343 2.59902 6.59851C2.84994 6.44124 3.09214 6.28961 3.27443 6.09795C3.45672 6.28961 3.69892 6.44124 3.94985 6.59851C4.405 6.88343 4.87554 7.17823 5.11209 7.75358C5.48928 8.67109 5.03846 9.21695 4.96067 9.30157H1.5882C1.51015 9.21662 1.05977 8.67069 1.43677 7.75358ZM1.39085 9.82702H5.15802V11.3154H1.39085V9.82702ZM0.525449 11.8408H6.52437V20.4943H0.525449V11.8408ZM20.4925 20.4943H14.4936V11.8408H20.4925V20.4943Z" fill="#A04A4A"/>
<path d="M4.02263 16.895C3.85023 16.8044 3.71567 16.7097 3.61126 16.6053L3.56239 16.5565C3.45977 16.4538 3.29353 16.4538 3.19091 16.5565L3.14217 16.6052C3.0375 16.7097 2.90294 16.8044 2.73054 16.895C2.27107 17.1362 1.98553 17.6078 1.98553 18.1257V19.4884C1.98553 19.6335 2.10316 19.7511 2.24824 19.7511H4.50493C4.65001 19.7511 4.76763 19.6335 4.76763 19.4884V18.1257C4.76763 17.6078 4.4821 17.1361 4.02263 16.895ZM4.24223 19.2257H2.51094V18.1257C2.51094 17.8036 2.68872 17.5103 2.97477 17.3601C3.12908 17.2791 3.26184 17.1933 3.37665 17.1001C3.49132 17.1932 3.62408 17.2791 3.7784 17.3601C4.06457 17.5103 4.24223 17.8036 4.24223 18.1257V19.2257Z" fill="#A04A4A"/>
<path d="M4.02263 13.0083C3.85023 12.9178 3.71567 12.8231 3.611 12.7183L3.56213 12.6695C3.45977 12.5672 3.29353 12.5672 3.19117 12.6695L3.14204 12.7185C3.0375 12.8231 2.90294 12.9178 2.73054 13.0083C2.27107 13.2496 1.98553 13.7211 1.98553 14.2391V15.6017C1.98553 15.7468 2.10316 15.8644 2.24824 15.8644H4.50493C4.65001 15.8644 4.76763 15.7468 4.76763 15.6017V14.2391C4.76763 13.7211 4.4821 13.2495 4.02263 13.0083ZM4.24223 15.339H2.51094V14.2391C2.51094 13.917 2.68872 13.6236 2.97477 13.4734C3.12908 13.3925 3.26197 13.3065 3.37665 13.2133C3.49132 13.3065 3.62408 13.3925 3.7784 13.4734C4.06457 13.6236 4.24223 13.917 4.24223 14.2391V15.339Z" fill="#A04A4A"/>
<path d="M16.5128 19.7511H18.7695C18.9145 19.7511 19.0322 19.6335 19.0322 19.4884V18.1257C19.0322 17.6078 18.7466 17.1362 18.2872 16.895C18.1148 16.8044 17.9802 16.7097 17.8757 16.6053L17.8268 16.5565C17.7242 16.4538 17.5579 16.4538 17.4553 16.5565L17.4064 16.6053C17.302 16.7097 17.1675 16.8044 16.9951 16.895C16.5356 17.1362 16.2501 17.6078 16.2501 18.1257V19.4884C16.2501 19.6335 16.3677 19.7511 16.5128 19.7511ZM16.7755 18.1257C16.7755 17.8036 16.9532 17.5103 17.2393 17.3601C17.3936 17.2791 17.5264 17.1932 17.641 17.1001C17.7558 17.1933 17.8886 17.2791 18.0429 17.3601C18.329 17.5103 18.5068 17.8036 18.5068 18.1257V19.2257H16.7755V18.1257Z" fill="#A04A4A"/>
<path d="M16.5128 15.8644H18.7695C18.9145 15.8644 19.0322 15.7468 19.0322 15.6017V14.2391C19.0322 13.7211 18.7466 13.2496 18.2872 13.0083C18.1148 12.9178 17.9802 12.8231 17.8754 12.7183L17.8265 12.6695C17.7242 12.5672 17.5579 12.5672 17.4556 12.6695L17.4063 12.7187C17.302 12.8231 17.1675 12.9178 16.9951 13.0083C16.5356 13.2496 16.2501 13.7211 16.2501 14.2391V15.6017C16.2501 15.7468 16.3677 15.8644 16.5128 15.8644ZM16.7755 14.2391C16.7755 13.917 16.9532 13.6236 17.2393 13.4734C17.3937 13.3925 17.5265 13.3065 17.641 13.2133C17.7558 13.3065 17.8886 13.3925 18.0429 13.4734C18.329 13.6236 18.5068 13.917 18.5068 14.2391V15.339H16.7755V14.2391Z" fill="#A04A4A"/>
</svg>
